{"title":"The Dead Zone (1983 David Cronenberg) XviD - Ita Eng Ac3 - Sub I","uid":8455700,"size":1568792089,"categoryP":"video","categoryS":"movies","magnet":"?xt=urn:btih:66521201b4ec90bf0991a40334bacfca9432f44c&amp;dn=The+Dead+Zone+%281983+David+Cronenberg%29+XviD+-+Ita+Eng+Ac3+-+Sub+I&amp;tr=udp%3A%2F%2Ftracker.openbittorrent.com%3A80&amp;tr=udp%3A%2F%2Fopen.demonii.com%3A1337&amp;tr=udp%3A%2F%2Ftracker.coppersurfer.tk%3A6969&amp;tr=udp%3A%2F%2Fexodus.desync.com%3A6969","seeders":1,"leechers":3,"uploader":null,"files":3,"time":1368059893,"description":"\nGeneral\nComplete name : La Zona Morta - The Dead Zone (1983)La Zona Morta - The Dead Zone (1983).avi\nFormat : AVI\nFormat/Info : Audio Video Interleave\nFile size : 1.46 GiB\nDuration : 1h 39mn\nOverall bit rate : 2 104 Kbps\nWriting application : VirtualDubMod 1.5.4.1 (build 2178/release)\nWriting library : VirtualDubMod build 2178/release\n\nVideo\nID : 0\nFormat : MPEG-4 Visual\nFormat profile : Advanced Simple@L5\nFormat settings, BVOP : Yes\nFormat settings, QPel : No\nFormat settings, GMC : No warppoints\nFormat settings, Matrix : Custom\nCodec ID : XVID\nCodec ID/Hint : XviD\nDuration : 1h 39mn\nBit rate : 1 519 Kbps\nWidth : 720 pixels\nHeight : 416 pixels\nDisplay aspect ratio : 16:9\nFrame rate : 25.000 fps\nColor space : YUV\nChroma subsampling : 4:2:0\nBit depth : 8 bits\nScan type : Progressive\nBits/(Pixel*Frame) : 0.203\nStream size : 1.05 GiB (72%)\nWriting library : XviD 1.2.1 (UTC 2008-12-04)\n\nAudio #1\nID : 1\nFormat : AC-3\nFormat/Info : Audio Coding 3\nFormat profile : Dolby Digital\nMode extension : CM (complete main)\nCodec ID : 2000\nDuration : 1h 39mn\nBit rate mode : Constant\nBit rate : 192 Kbps\nChannel(s) : 2 channels\nChannel positions : Front: L R\nSampling rate : 48.0 KHz\nBit depth : 16 bits\nStream size : 136 MiB (9%)\nAlignment : Aligned on interleaves\nInterleave, duration : 96 ms (2.40 video frames)\nInterleave, preload duration : 96 ms\nLanguage : Italian\n\nAudio #2\nID : 2\nFormat : AC-3\nFormat/Info : Audio Coding 3\nMode extension : CM (complete main)\nCodec ID : 2000\nDuration : 1h 39mn\nBit rate mode : Constant\nBit rate : 384 Kbps\nChannel(s) : 6 channels\nChannel positions : Front: L C R, Side: L R, LFE\nSampling rate : 48.0 KHz\nBit depth : 16 bits\nStream size : 273 MiB (18%)\nAlignment : Aligned on interleaves\nInterleave, duration : 96 ms (2.40 video frames)\nInterleave, preload duration : 96 ms\nLanguage : English","torrent":{"xt":"urn:btih:66521201b4ec90bf0991a40334bacfca9432f44c","amp;dn":"The+Dead+Zone+%281983+David+Cronenberg%29+XviD+-+Ita+Eng+Ac3+-+Sub+I","amp;tr":["udp%3A%2F%2Ftracker.openbittorrent.com%3A80","udp%3A%2F%2Fopen.demonii.com%3A1337","udp%3A%2F%2Ftracker.coppersurfer.tk%3A6969","udp%3A%2F%2Fexodus.desync.com%3A6969"],"infoHash":"66521201b4ec90bf0991a40334bacfca9432f44c","infoHashBuffer":{"type":"Buffer","data":[102,82,18,1,180,236,144,191,9,145,164,3,52,186,207,202,148,50,244,76]},"announce":[],"urlList":[]}}